<svg width="100" height="100" viewBox="0 0 100 100" fill="none" xmlns="http://www.w3.org/2000/svg">
<g clip-path="url(#clip0_398_28366)">
<path d="M23.1997 84.8308L17.1055 86.4944V88.1579H39.9587V13.8534L46.0528 12.1899V10.5263H17.1055V12.1899L23.1997 13.8534V84.8308Z" fill="#1B2557"/>
<path d="M15.7891 88.1579H85.5259C85.5259 84.5244 82.5804 81.5789 78.947 81.5789H22.368C18.7346 81.5789 15.7891 84.5244 15.7891 88.1579Z" fill="#1B2557"/>
<path d="M69.7363 76.3158H48.6837C46.5036 76.3158 44.7363 78.0831 44.7363 80.2632H73.6837C73.6837 78.0831 71.9164 76.3158 69.7363 76.3158Z" fill="#1B2557"/>
<path d="M68.7372 53.6804C70.3269 55.27 72.9042 55.27 74.4938 53.6804L88.8853 39.2889C90.475 37.6992 90.475 35.1219 88.8853 33.5323L77.3721 22.019C75.7825 20.4294 73.2052 20.4294 71.6155 22.019L57.224 36.4106C55.6344 38.0002 55.6344 40.5775 57.224 42.1672L68.7372 53.6804Z" fill="#1B2557"/>
<path d="M87.1583 46.7724C86.5225 46.1366 85.4916 46.1366 84.8557 46.7724L81.4017 50.2264C80.7659 50.8623 80.7659 51.8932 81.4017 52.5291L114.79 85.9174C115.426 86.5532 116.457 86.5532 117.093 85.9174L120.547 82.4634C121.183 81.8275 121.183 80.7966 120.547 80.1608L87.1583 46.7724Z" fill="#1B2557"/>
<path d="M55.6494 42.8952C54.2935 41.5393 52.0952 41.5393 50.7394 42.8952C50.5056 43.129 50.5056 43.508 50.7393 43.7418L67.2512 60.2536C67.436 60.4385 67.7357 60.4385 67.9206 60.2536C69.3254 58.8488 69.3254 56.5712 67.9206 55.1664L55.6494 42.8952Z" fill="#1B2557"/>
<path d="M78.1002 20.4444C76.7443 19.0886 76.7443 16.8903 78.1002 15.5344C78.3339 15.3006 78.7129 15.3006 78.9467 15.5344L95.4586 32.0462C95.6434 32.2311 95.6434 32.5308 95.4586 32.7156C94.0538 34.1204 91.7761 34.1204 90.3713 32.7156L78.1002 20.4444Z" fill="#1B2557"/>
</g>
<rect x="0.488281" y="0.488281" width="99.0234" height="99.0234" rx="19.2486" stroke="#1B2557" stroke-width="0.976562"/>
<defs>
<clipPath id="clip0_398_28366">
<rect width="100" height="100" rx="19.7368" fill="white"/>
</clipPath>
</defs>
</svg>
