<svg width="20" height="20" viewBox="0 0 20 20" fill="none" xmlns="http://www.w3.org/2000/svg">
<path d="M15.3407 0.00140969H14.6177C11.6687 2.93365 7.28913 7.26401 5.09196 9.46549C4.81009 9.74737 4.56698 10.061 4.63322 10.4922C4.66634 10.7036 4.75654 10.9059 4.83334 11.1539C4.97428 11.0348 5.07646 10.9602 5.16454 10.8721C5.39497 10.6395 5.61624 10.3964 5.84878 10.1674C5.90323 10.1201 5.97256 10.0934 6.04468 10.092C7.09111 10.087 8.13826 10.092 9.25657 10.092C9.2003 10.1769 9.13888 10.2583 9.07265 10.3358C8.30644 11.0997 7.53905 11.8645 6.77049 12.6303C6.71271 12.6881 6.64647 12.7381 6.55909 12.8142C6.78317 12.9707 6.9685 13.0707 7.22359 13.0101C7.51705 12.9338 7.7847 12.7802 7.99873 12.5655C8.46616 12.1252 8.92796 11.6789 9.38412 11.2265C10.3707 10.2491 11.3473 9.26535 12.3311 8.28583C12.4642 8.15334 12.6129 8.03636 12.7468 7.90388C12.8546 7.79606 12.9237 7.83341 13.0167 7.92784C13.4761 8.38636 13.9398 8.84113 14.4077 9.29213C14.5346 9.41475 14.5268 9.50777 14.4035 9.62616C13.9004 10.1082 13.3986 10.5909 12.904 11.0814C11.947 12.0306 11.0049 12.9932 10.0388 13.9326C9.61893 14.3466 9.17162 14.7317 8.69988 15.0854C8.21577 15.4434 7.64287 15.6126 7.03615 15.6492C5.84807 15.7232 4.8876 15.2229 4.0117 14.4808C3.3447 13.9256 2.79187 13.2462 2.38391 12.4802C2.04214 11.829 1.86456 11.1413 1.9611 10.3823C2.07737 9.49156 2.49736 8.77066 3.0921 8.14489C4.05186 7.13576 5.04052 6.15412 6.02072 5.16472C6.70354 4.47553 10.5609 0.682851 11.2508 0H4.65718C3.42202 0 2.23745 0.490683 1.36406 1.3641C0.490667 2.23752 0 3.42214 0 4.65734V15.3427C0 16.5779 0.490667 17.7625 1.36406 18.6359C2.23745 19.5093 3.42202 20 4.65718 20H5.3703C8.39476 16.9888 12.7954 12.6232 14.9475 10.4662C15.2216 10.192 15.4408 9.85941 15.3449 9.45915C15.2678 9.14792 15.133 8.85391 14.9475 8.59237C14.6967 8.25151 14.4135 7.93574 14.1019 7.64948C13.8597 7.42553 13.5914 7.23152 13.3028 7.07163C13.1533 6.97836 12.9772 6.93713 12.8018 6.95433C12.6264 6.97154 12.4617 7.04622 12.3332 7.16677C11.9421 7.50784 11.5644 7.86583 11.1846 8.22381C10.8414 8.54445 10.5052 8.87284 10.1621 9.19418C10.1165 9.23945 10.0568 9.26779 9.99295 9.27452C8.94581 9.28015 7.89867 9.27945 6.85153 9.27945C6.81744 9.27172 6.78434 9.26013 6.75287 9.24492C6.83602 9.1519 6.90156 9.06945 6.97555 8.99616C7.8733 8.10472 8.75837 7.19989 9.67726 6.32959C10.1959 5.8363 10.6575 5.28382 11.2733 4.89553C12.0092 4.42326 12.894 4.24072 13.7566 4.38321C14.6107 4.50865 15.2998 4.94133 15.9453 5.48325C16.4796 5.94036 16.9467 6.47059 17.3328 7.05825C17.8212 7.78126 18.1249 8.56418 18.0523 9.45421C17.9968 10.0845 17.7704 10.6878 17.3976 11.199C17.1396 11.5673 16.8529 11.9147 16.5401 12.2378C15.6472 13.1489 14.7326 14.0383 13.8306 14.9396C13.0125 15.7584 10.5778 18.1713 8.74005 19.9986H15.3428C16.578 19.9986 17.7626 19.5079 18.6359 18.6345C19.5093 17.7611 20 16.5765 20 15.3413V4.65875C20 4.04696 19.8795 3.44117 19.6453 2.87598C19.4111 2.31078 19.0679 1.79727 18.6352 1.36477C18.2025 0.932265 17.6889 0.589251 17.1236 0.355322C16.5583 0.121393 15.9525 0.00113199 15.3407 0.00140969Z" fill="black"/>
</svg>
