<svg width="56" height="56" viewBox="0 0 56 56" fill="none" xmlns="http://www.w3.org/2000/svg">
<rect x="0.5" y="0.5" width="55" height="55" rx="11.5" stroke="white"/>
<path fill-rule="evenodd" clip-rule="evenodd" d="M27.0207 8.13543C21.1783 9.03157 15.4072 12.699 12.332 17.4697C7.86811 24.3948 7.89092 32.975 12.3915 39.7953C14.1564 42.4695 17.5122 45.4007 20.5308 46.9046C26.711 49.9837 34.7869 49.6442 40.8113 46.0521C43.2875 44.5756 44.5609 43.4512 45.3217 42.0698C45.9794 40.8756 46.6063 39.1545 46.8823 37.7857L47 37.201H38.7407C34.198 37.201 30.3499 37.151 30.1893 37.0899C30.0065 37.0202 29.9286 36.8312 29.9811 36.5839C30.3184 34.9953 30.1532 33.6172 29.4677 32.3026C28.9965 31.3987 27.3965 30.0873 26.3198 29.7224C23.4103 28.7363 20.3096 30.0746 19.0308 32.8683C18.5246 33.9746 18.3831 35.0072 18.5867 36.1122C18.7767 37.1433 18.6277 37.2476 17.1398 37.1254C15.225 36.9681 14.5847 36.3907 14.0451 34.3347C13.4234 31.9661 13.8194 28.5554 14.8975 26.994C15.9698 25.4409 18.8633 24.7045 25.0737 24.4042C26.6494 24.328 27.9578 24.1755 28.2346 24.0358C28.4944 23.9046 29.4122 23.1627 30.2743 22.3869C34.0449 18.9942 38.2562 16.9202 43.6945 15.7779C44.9105 15.5223 45.9906 15.2288 46.0946 15.1255C46.3327 14.8893 45.6525 14.1556 43.8942 12.7529C41.3192 10.6984 38.5632 9.32599 35.2922 8.46867C33.6653 8.04232 28.8836 7.84965 27.0207 8.13543ZM27.8469 35.8572C28.2368 34.1299 27.449 32.6423 25.7227 31.8466C24.7229 31.3857 23.8712 31.4133 22.7237 31.9434C21.6285 32.4496 21.2566 32.9218 20.9015 34.2574C20.6855 35.07 20.6898 35.3333 20.9321 36.1549C21.4251 37.826 22.5694 38.6732 24.3335 38.6732C26.0954 38.6732 27.4575 37.5816 27.8469 35.8572Z" fill="white"/>
</svg>
